<svg width="822" height="822" viewBox="0 0 822 822" fill="none" xmlns="http://www.w3.org/2000/svg">
<g clip-path="url(#clip0_605_5041)">
<path d="M411.151 644.201C409.886 645.866 409.254 646.957 408.392 647.818C367.012 689.241 325.574 730.607 284.251 772.087C258.302 798.152 227.411 815.003 190.945 819.998C131.777 828.121 81.5746 810.008 41.4013 765.714C18.4123 740.367 5.33736 710.197 1.22808 676.209C0.423465 669.52 0.0786302 662.745 0.0786302 655.999C0.0211577 492.719 -0.065051 329.439 0.0786302 166.158C0.136103 90.7184 49.3325 25.2971 121.92 6.26495C180.945 -9.20765 233.963 4.02587 279.05 45.4488C297.7 62.5864 315.057 81.1305 332.988 99.0432C358.19 124.218 383.363 149.422 408.536 174.626C409.398 175.488 409.944 176.636 410.662 177.641C411.093 177.641 411.495 177.641 411.926 177.641C412.559 176.693 413.076 175.631 413.852 174.856C455.491 132.974 497.129 91.0916 538.854 49.2954C565.493 22.5987 597.534 6.60942 634.948 1.64326C722.048 -9.8966 803.687 49.0945 818.975 135.385C829.004 192.051 813.515 241.626 773.141 282.762C731.703 324.989 689.576 366.527 647.736 408.38C646.874 409.242 645.811 409.902 644.201 411.136C648.311 414.983 651.96 418.227 655.409 421.671C694.289 460.539 733.054 499.494 772.02 538.276C799.147 565.288 815.555 597.582 820.613 635.475C824.148 662.028 821.274 688.007 812.05 713.182C800.354 745.075 780.756 771.168 753.112 790.89C719.031 815.204 680.926 825.366 639.23 821.06C600.235 817.012 566.815 800.937 539.113 773.207C497.445 731.497 455.835 689.701 414.225 647.933C413.363 647.072 412.674 646.038 411.237 644.23L411.151 644.201ZM351.81 237.895C337.5 223.771 323.936 210.566 310.545 197.189C281.119 167.852 251.866 138.313 222.353 109.062C203.359 90.2591 180.226 82.6233 153.875 86.3838C114.363 92.0102 85.454 125.568 85.4252 165.555C85.339 329.238 85.3678 492.92 85.4252 656.602C85.4252 667.97 87.7242 678.936 92.4369 689.327C115.656 740.596 182.496 752.969 222.411 713.24C247.44 688.351 272.297 663.262 297.24 638.259C314.309 621.179 331.407 604.099 348.477 587.019C349.253 586.244 349.971 585.411 351.178 584.119C350.115 583.316 349.138 582.741 348.333 581.966C305.315 539.022 262.354 495.991 219.25 453.105C207.784 441.68 200.974 428.36 200.744 412.026C200.514 395.089 207.209 381.196 219.106 369.369C262.211 326.482 305.171 283.451 348.189 240.507C349.051 239.646 350.143 239.043 351.81 237.866V237.895ZM603.022 411.136C604.545 409.902 605.494 409.299 606.298 408.495C626.73 388.085 647.132 367.675 667.506 347.265C696.3 318.444 725.41 289.939 753.715 260.659C787.164 226.096 799.147 184.415 789.549 137.567C777.451 78.6044 730.381 36.636 670.351 30.2633C631.586 26.1296 596.787 36.8944 567.447 62.6151C553.021 75.2745 539.975 89.5127 526.383 103.148C477.244 152.437 428.162 201.782 378.995 251.042C332.356 297.747 285.602 344.366 238.905 391.042C237.526 392.42 236.176 393.826 235.026 395.376C226.98 406.371 228.417 420.954 238.561 431.058C285.746 478.108 332.959 525.1 380.087 572.206C405.001 597.094 429.685 622.184 454.542 647.129C489.859 682.581 525.061 718.177 560.665 753.371C591.672 784.029 629.431 796.573 672.593 791.837C705.094 788.277 732.881 774.183 755.296 750.299C784.492 719.182 796.475 682.065 791.647 639.867C788.055 608.52 774.319 581.794 751.962 559.489C703.456 511.034 654.977 462.491 606.499 414.007C605.637 413.146 604.603 412.457 603.051 411.165L603.022 411.136ZM390.69 197.563C389.914 196.931 389.052 196.328 388.334 195.611C346.437 153.7 304.654 111.674 262.584 69.9064C229.681 37.2676 189.853 24.4359 144.133 31.067C78.9883 40.5975 29.3034 98.67 29.2746 164.464C29.2746 328.262 29.2746 492.059 29.2746 655.827C29.2746 674.486 32.6081 692.428 39.9358 709.594C63.7007 765.255 121.949 801.166 186.864 791.234C216.779 786.67 242.153 773.063 263.475 751.648C305.085 709.881 346.81 668.228 388.506 626.547C389.225 625.829 390.144 625.313 390.69 624.911C384.023 618.251 377.759 611.993 370.92 605.161C370.374 605.936 369.799 607.056 368.937 607.917C327.269 649.627 285.717 691.452 243.877 732.989C214.968 761.667 180.054 771.829 140.455 762.901C90.8851 751.734 56.3442 707.498 56.2867 656.66C56.2005 586.674 56.2867 516.717 56.2867 446.732C56.2867 353.322 56.2867 259.912 56.2867 166.531C56.2867 150.772 59.2178 135.643 65.6547 121.233C85.8563 75.8773 134.478 49.6973 183.186 57.7924C206.893 61.7252 227.037 72.3752 243.963 89.3405C285.631 131.079 327.327 172.76 368.994 214.442C369.857 215.303 370.747 216.107 371.466 216.824C377.845 210.48 384.052 204.28 390.719 197.62L390.69 197.563Z" fill="#29DABA"/>
<path d="M584.881 391.754C540.168 347.403 495.569 303.167 451.229 259.218C445.108 265.275 438.815 271.504 432.119 278.193C476.402 322.084 521 366.32 565.886 410.844C520.627 455.625 475.942 499.861 431.401 543.925C438.556 551.073 444.763 557.273 450.884 563.388C495.224 519.238 539.823 474.887 585.226 429.675C585.973 430.88 586.375 432.029 587.151 432.832C636.118 481.862 685.171 530.835 734.08 579.894C775.058 621.001 776.408 687.312 737.384 730.17C694.797 776.933 622.382 777.622 578.674 733.644C517.322 671.954 455.798 610.437 394.331 548.891C349.416 503.909 304.473 458.955 259.472 414.059C257.259 411.848 257.259 410.786 259.472 408.576C303.209 365.029 346.916 321.424 390.509 277.762C435.711 232.492 480.827 187.137 525.972 141.81C543.587 124.127 561.059 106.272 578.847 88.7321C600.284 67.5757 626.089 56.9544 656.406 56.6386C699.855 56.1793 740.057 83.0195 756.867 122.519C774.253 163.368 765.747 211.106 733.074 243.688C684.05 292.546 635.198 341.576 586.26 390.52C585.772 391.008 585.226 391.467 584.881 391.783V391.754ZM585.197 350.934C585.973 349.958 586.663 348.924 587.525 348.063C611.864 323.634 636.233 299.234 660.601 274.805C678.159 257.208 695.86 239.726 713.303 221.986C731.637 203.356 739.137 180.764 735.833 154.986C729.367 104.635 677.441 73.2021 629.48 90.1961C616.146 94.9039 605.428 103.229 595.542 113.218C560.312 148.9 524.822 184.352 489.391 219.833C483.5 225.746 477.321 231.402 470.827 237.602C509.276 275.695 546.978 313.07 585.226 350.934H585.197ZM470.856 585.549C484.822 599.041 498.672 612.102 512.15 625.537C541.231 654.472 570.139 683.609 599.106 712.66C623.531 737.146 657.986 743.605 689.596 729.625C739.856 707.378 752.615 640.033 713.936 601.079C707.527 594.62 701.119 588.133 694.682 581.702C658.819 545.791 622.928 509.908 587.065 473.997C586.289 473.222 585.858 472.074 585.485 471.442C547.15 509.621 509.506 547.054 470.827 585.578L470.856 585.549ZM524.161 411.36C486.345 373.698 448.729 336.265 411.286 299.004C373.9 336.351 336.255 373.927 298.869 411.274C336.284 448.649 373.9 486.255 411.286 523.601C448.758 486.369 486.402 448.937 524.19 411.36H524.161Z" fill="#29DABA"/>
</g>
<defs>
<clipPath id="clip0_605_5041">
<rect width="822" height="822" fill="white"/>
</clipPath>
</defs>
</svg>
